<svg width="20" height="20" viewBox="0 0 20 20" fill="none" xmlns="http://www.w3.org/2000/svg">
<path d="M16.3223 14.8987C15.9748 14.0888 15.4707 13.3532 14.8378 12.7328C14.2069 12.1106 13.4595 11.6145 12.6369 11.272C12.6296 11.2683 12.6222 11.2665 12.6148 11.2629C13.7622 10.4473 14.5081 9.11876 14.5081 7.61987C14.5081 5.13682 12.4638 3.125 9.94063 3.125C7.41744 3.125 5.3731 5.13682 5.3731 7.61987C5.3731 9.11876 6.11901 10.4473 7.26641 11.2647C7.25905 11.2683 7.25168 11.2701 7.24431 11.2738C6.41921 11.6163 5.67883 12.1075 5.04343 12.7346C4.41118 13.3555 3.90708 14.091 3.55899 14.9005C3.21701 15.693 3.03258 16.5426 3.01567 17.4035C3.01518 17.4228 3.01863 17.4421 3.02581 17.4601C3.033 17.4781 3.04377 17.4945 3.0575 17.5083C3.07123 17.5222 3.08764 17.5332 3.10576 17.5407C3.12388 17.5482 3.14335 17.5521 3.16301 17.5521H4.26806C4.34909 17.5521 4.41355 17.4886 4.4154 17.4107C4.45223 16.0115 5.02317 14.7011 6.03245 13.7079C7.07671 12.6802 8.46355 12.1147 9.94063 12.1147C11.4177 12.1147 12.8045 12.6802 13.8488 13.7079C14.8581 14.7011 15.429 16.0115 15.4659 17.4107C15.4677 17.4905 15.5322 17.5521 15.6132 17.5521H16.7182C16.7379 17.5521 16.7574 17.5482 16.7755 17.5407C16.7936 17.5332 16.81 17.5222 16.8237 17.5083C16.8375 17.4945 16.8483 17.4781 16.8554 17.4601C16.8626 17.4421 16.8661 17.4228 16.8656 17.4035C16.8472 16.5371 16.6648 15.6943 16.3223 14.8987V14.8987ZM9.94063 10.7373C9.09527 10.7373 8.29963 10.4129 7.70107 9.82381C7.1025 9.23476 6.77283 8.45178 6.77283 7.61987C6.77283 6.78796 7.1025 6.00498 7.70107 5.41593C8.29963 4.82689 9.09527 4.50246 9.94063 4.50246C10.786 4.50246 11.5816 4.82689 12.1802 5.41593C12.7788 6.00498 13.1084 6.78796 13.1084 7.61987C13.1084 8.45178 12.7788 9.23476 12.1802 9.82381C11.5816 10.4129 10.786 10.7373 9.94063 10.7373Z" fill="#081312"/>
</svg>
