<?xml version="1.0" encoding="utf-8"?>
<!-- Generator: Adobe Illustrator 23.1.0, SVG Export Plug-In . SVG Version: 6.00 Build 0)  -->
<svg version="1.1" id="Layer_1" xmlns="http://www.w3.org/2000/svg" xmlns:xlink="http://www.w3.org/1999/xlink" x="0px" y="0px"
	 viewBox="0 0 1024 768" style="enable-background:new 0 0 1024 768;" xml:space="preserve">
<style type="text/css">
	.st0{fill:#081312;}
</style>
<g transform="translate(0.000000,768.000000) scale(0.100000,-0.100000)">
	<path class="st0" d="M7110,7364.4c-83.6-1.9-105.9-6.5-158-29.7c-57.6-25.1-132.9-98.5-1689.3-1653
		C3724,4144.7,3632,4050.8,3601.3,3989.5c-63.2-127.3-63.2-245.3,0-371.7c30.7-61.3,124.5-156.1,1661.4-1692.1
		C6821.9,368.4,6894.4,297.8,6952,272.7c114.3-50.2,272.3-41.8,380,21.4c142.2,83.6,224.9,260.2,197,420
		c-26.9,146.8,79.9,32.5-1521.1,1635.4L4554.7,3803.7l1448.6,1449.6C7110,6360.8,7458.4,6714.9,7480.7,6753.9
		c36.2,65,60.4,171.9,53,236c-19.5,167.3-118,298.3-268.5,355C7215,7364.4,7194.5,7367.2,7110,7364.4z"/>
</g>
</svg>
