<?xml version="1.0" encoding="utf-8"?>
<!-- Generator: Adobe Illustrator 23.1.0, SVG Export Plug-In . SVG Version: 6.00 Build 0)  -->
<svg version="1.1" id="Layer_1" xmlns="http://www.w3.org/2000/svg" xmlns:xlink="http://www.w3.org/1999/xlink" x="0px" y="0px"
	 viewBox="0 0 1024 768" style="enable-background:new 0 0 1024 768;" xml:space="preserve">
<style type="text/css">
	.st0{fill:#081312;}
</style>
<g transform="translate(0.000000,768.000000) scale(0.100000,-0.100000)">
	<path class="st0" d="M3823.8,7344.9c-150.5-56.7-249-187.7-268.5-355c-7.4-64.1,16.7-171,53-236c22.3-39,370.8-393.1,1477.4-1500.7
		l1448.6-1449.6L5081,2349.5C3480,746.6,3586.9,860.9,3559.9,714.1c-27.9-159.8,54.8-336.4,197-420c107.8-63.2,265.8-71.5,380-21.4
		c57.6,25.1,130.1,95.7,1689.3,1653c1536.9,1536,1630.7,1630.7,1661.4,1692.1c63.2,126.4,63.2,244.4,0,371.7
		c-30.7,61.3-122.7,155.2-1661.4,1692.1c-1556.4,1554.6-1631.7,1628-1689.3,1653c-52,23.2-74.3,27.9-158,29.7
		C3894.4,7367.2,3874,7364.4,3823.8,7344.9z"/>
</g>
</svg>
