<svg id="Layer_1" data-name="Layer 1" xmlns="http://www.w3.org/2000/svg" viewBox="0 0 773.19 500"><defs><style>.cls-1{fill:#d0d4d6;}</style></defs><path class="cls-1" d="M345.77,228.34l-63.73-81L223.39,187.1l-29.75-20.4-57.79,21.08L107.12,257l53.11,70.43,63.53-8.14,78.08,16.34,79.42-57.26,12.85-26L393.22,215ZM364,263.74l-71-38.55-6.62-60.08Zm-71,30-7.66,2-31-55.8,8-22.73L286,230Zm-43.48-62.6-16.63-30,22.81,12.39ZM285,220.84,265,210l14.34-40.75ZM273.93,162l-15.61,44.34-27.66-15Zm-94.75,18.06L146.56,214.2l-3.67-20.9Zm-42,24.06,2.95,16.8L122.6,239.27Zm-20.84,52.61,25.4-26.58,13.77,78.52Zm31.83-33.3L186.83,183,162.18,303.33Zm18.45,95.51,26.56-129.7,26.19,122.94Zm32.12-139.56,21.81,15,25.69,46.31-21.46,61Zm52.37,70,26.77,48.26L229.79,310Zm-10.45,65.66,41-10.53,12,21.63Zm48.56-12.46,4.68-1.2,1.33,12ZM304,324.74l-2.78-25.22,58.6-15Zm-3.62-32.85-6.35-57.52,74,40.16Zm77.21-23.08-21.37-27.16,28.93,11.89ZM356,233.35l30-8.43.49,20.94Z"/><path class="cls-1" d="M463.23,191.84A10.67,10.67,0,0,1,468,201a11,11,0,0,1-2.42,7.14,11.74,11.74,0,0,1-6.66,4,13.57,13.57,0,0,1,8.15,4.31,12.33,12.33,0,0,1,2.94,8.4,11.83,11.83,0,0,1-5.17,10.17q-5.17,3.7-14.11,3.7H426.94V188.47h23.15Q458.43,188.47,463.23,191.84Zm-7.59,15.52a5.44,5.44,0,0,0,2.19-4.6,5.17,5.17,0,0,0-2.19-4.45,9.86,9.86,0,0,0-6.07-1.51H436.92V209h12.65A9.92,9.92,0,0,0,455.64,207.36ZM457,228.69a5.7,5.7,0,0,0,2.68-5,5.52,5.52,0,0,0-2.68-4.85q-2.67-1.76-7.44-1.68H436.92v13.29h12.65C452.75,230.46,455.23,229.89,457,228.69Z"/><path class="cls-1" d="M517.49,191.2a25.7,25.7,0,0,1,10,9.26,25.3,25.3,0,0,1,0,26.18,26.07,26.07,0,0,1-10,9.38,30.56,30.56,0,0,1-28.21,0,26.07,26.07,0,0,1-10-9.38,25.3,25.3,0,0,1,0-26.18,25.7,25.7,0,0,1,10-9.26,31.12,31.12,0,0,1,28.21,0Zm-22.81,7.5a17.18,17.18,0,0,0-6.48,6.18,16.88,16.88,0,0,0,0,17.35,17.81,17.81,0,0,0,15.3,8.54,17.48,17.48,0,0,0,15.07-8.54,16.75,16.75,0,0,0,2.34-8.69,16.54,16.54,0,0,0-2.34-8.66,17.1,17.1,0,0,0-6.37-6.18,17.43,17.43,0,0,0-8.7-2.26A18,18,0,0,0,494.68,198.7Z"/><path class="cls-1" d="M575.59,191.66a24,24,0,0,1,9.67,9,24.51,24.51,0,0,1,3.5,13,24.08,24.08,0,0,1-3.54,13,24.41,24.41,0,0,1-9.78,9,30.58,30.58,0,0,1-14.22,3.23H539.93V188.47h21.66A30,30,0,0,1,575.59,191.66Zm-5.18,36.49a15.22,15.22,0,0,0,6-5.89,18,18,0,0,0-.07-17.24,15.57,15.57,0,0,0-6.14-6,18.09,18.09,0,0,0-8.75-2.12H549.91v33.33h11.91A17.36,17.36,0,0,0,570.41,228.15Z"/><path class="cls-1" d="M597.47,188.47h10v21.47h26V188.47h10v50.28h-10v-20.4h-26v20.4h-10Z"/><path class="cls-1" d="M457.72,254.7h19.69v4.84H463.56v5.61H476V270H463.56v5.73h14.26v4.83h-20.1Z"/><path class="cls-1" d="M486.46,254.7H493L501,270.58l8-15.88h6.47v25.85h-5.25V263.08l-7.35,14.85h-3.77l-7.38-14.85v17.47h-5.25Z"/><path class="cls-1" d="M557.05,280.55l-2-5h-12l-2,5h-6l11.23-25.85h6l11,25.85ZM545,270.84h8.16l-4.06-10Z"/><path class="cls-1" d="M587.93,254.7h5.54v25.85h-5.32l-12.52-16.62v16.62h-5.58V254.7h5.32l12.56,16.69Z"/><path class="cls-1" d="M621.24,256.34a12,12,0,0,1,4.83,4.58,13.08,13.08,0,0,1,1.71,6.71,12.81,12.81,0,0,1-1.75,6.7,12.11,12.11,0,0,1-4.9,4.58,15.15,15.15,0,0,1-7.16,1.64H603.22V254.7h11A14.87,14.87,0,0,1,621.24,256.34Zm-3,18.29a7.07,7.07,0,0,0,2.67-2.83,8.61,8.61,0,0,0,1-4.14,8.47,8.47,0,0,0-1-4.17,7.26,7.26,0,0,0-2.77-2.86,7.75,7.75,0,0,0-4-1h-5v16h5.28A7.51,7.51,0,0,0,618.2,274.63Z"/><path class="cls-1" d="M441.75,299.34a8,8,0,0,0-3.6-.9,7.76,7.76,0,0,0-6.84,4,8.21,8.21,0,0,0-1,4.1,8.37,8.37,0,0,0,1,4.12,7.84,7.84,0,0,0,2.85,3,7.52,7.52,0,0,0,4,1.09,8.38,8.38,0,0,0,3.52-.83,11.13,11.13,0,0,0,3.2-2.24l3.43,3.73a15.39,15.39,0,0,1-4.85,3.4,13.51,13.51,0,0,1-5.6,1.26,13.79,13.79,0,0,1-6.91-1.76,12.74,12.74,0,0,1-4.87-4.82,13.41,13.41,0,0,1-1.78-6.83,12.94,12.94,0,0,1,6.78-11.52,14.28,14.28,0,0,1,7-1.74,14.12,14.12,0,0,1,5.54,1.16,14,14,0,0,1,4.66,3.16l-3.4,4.18A10,10,0,0,0,441.75,299.34Z"/><path class="cls-1" d="M471.72,319.6l-4.1-7.39h-5.94v7.39h-5.84V293.75h11.23q5.06,0,7.83,2.34a8.2,8.2,0,0,1,2.77,6.63,10,10,0,0,1-1.24,5.12,7.94,7.94,0,0,1-3.6,3.23l5.5,8.53Zm-10-12.26h5.39a5.62,5.62,0,0,0,3.75-1.13,4.12,4.12,0,0,0,1.31-3.3,4,4,0,0,0-1.31-3.24,5.78,5.78,0,0,0-3.75-1.09h-5.39Z"/><path class="cls-1" d="M508.25,293.75l-9.42,17.5v8.35H493v-8.2l-9.57-17.65h5.88l6.61,11.59,6.46-11.59Z"/><path class="cls-1" d="M527.85,299a12.85,12.85,0,0,0-3.82-.72,4.55,4.55,0,0,0-2.41.55,1.8,1.8,0,0,0-.88,1.63,2.29,2.29,0,0,0,1.27,2.09,19.84,19.84,0,0,0,3.94,1.49,35.33,35.33,0,0,1,4.37,1.55,7.79,7.79,0,0,1,2.94,2.33,6.46,6.46,0,0,1,1.22,4.1,7.08,7.08,0,0,1-1.31,4.27,8.13,8.13,0,0,1-3.6,2.71,13.79,13.79,0,0,1-5.21.92,18,18,0,0,1-6.17-1.1,16.73,16.73,0,0,1-5.25-3l2.33-4.77a16,16,0,0,0,4.51,2.85,12.21,12.21,0,0,0,4.65,1.07,5.08,5.08,0,0,0,2.83-.67,2.32,2.32,0,0,0,.33-3.56,5.21,5.21,0,0,0-1.74-1.05c-.7-.27-1.66-.58-2.9-.93a33.79,33.79,0,0,1-4.34-1.47,7.79,7.79,0,0,1-2.9-2.26,6.23,6.23,0,0,1-1.21-4,6.82,6.82,0,0,1,1.25-4.09,8,8,0,0,1,3.51-2.69,13.48,13.48,0,0,1,5.25-.94,18.59,18.59,0,0,1,9.82,2.84L532.08,301A19.76,19.76,0,0,0,527.85,299Z"/><path class="cls-1" d="M540.09,293.75H561.7v4.95h-7.9v20.9H548V298.7h-7.87Z"/><path class="cls-1" d="M585.31,319.6l-2-5h-12l-2,5h-6l11.23-25.85h6l11,25.85Zm-12.08-9.71h8.16l-4.06-10.05Z"/><path class="cls-1" d="M598.31,293.75h5.83V314.5h11.08v5.1H598.31Z"/><path class="cls-1" d="M635.56,299a12.85,12.85,0,0,0-3.82-.72,4.5,4.5,0,0,0-2.41.55,1.8,1.8,0,0,0-.88,1.63,2.29,2.29,0,0,0,1.27,2.09,19.84,19.84,0,0,0,3.94,1.49A35.33,35.33,0,0,1,638,305.6a7.79,7.79,0,0,1,2.94,2.33,6.46,6.46,0,0,1,1.22,4.1,7.08,7.08,0,0,1-1.31,4.27,8.13,8.13,0,0,1-3.6,2.71,13.79,13.79,0,0,1-5.21.92,18,18,0,0,1-6.17-1.1,16.73,16.73,0,0,1-5.25-3L623,311a16,16,0,0,0,4.51,2.85,12.21,12.21,0,0,0,4.65,1.07,5.08,5.08,0,0,0,2.83-.67,2.32,2.32,0,0,0,.33-3.56,5.21,5.21,0,0,0-1.74-1.05c-.7-.27-1.67-.58-2.9-.93a33.26,33.26,0,0,1-4.34-1.47,7.79,7.79,0,0,1-2.9-2.26,6.24,6.24,0,0,1-1.22-4,6.82,6.82,0,0,1,1.26-4.09,8,8,0,0,1,3.51-2.69,13.47,13.47,0,0,1,5.24-.94,18.59,18.59,0,0,1,9.83,2.84L639.79,301A19.76,19.76,0,0,0,635.56,299Z"/><path class="cls-1" d="M438.65,271.38h4.85v3a13.62,13.62,0,0,1-2.58,1.06,9.25,9.25,0,0,1-2.48.38,8,8,0,0,1-4.12-1.09,7.92,7.92,0,0,1-2.95-3,8.61,8.61,0,0,1,0-8.35,8.07,8.07,0,0,1,7.06-4,9.92,9.92,0,0,1,3.76.77,10.77,10.77,0,0,1,3.33,2.15l3.29-4.18a15.22,15.22,0,0,0-4.75-2.8,15.89,15.89,0,0,0-5.63-1,14.91,14.91,0,0,0-7.19,1.74,13.07,13.07,0,0,0-5.08,4.78,12.83,12.83,0,0,0-1.85,6.78,13.13,13.13,0,0,0,6.76,11.62,14.17,14.17,0,0,0,7,1.75,19.08,19.08,0,0,0,10.49-3.4v-6.18h0v-4.73h-9.91Z"/></svg>